# xmcd
#
# Track frame offsets: 
#        150
#        21463
#        38275
#        59295
#        85568
#        107850
#        129820
#        148753
#        163993
#        181828
#        199550
#        227198
#
# Disc length: 3395 seconds
#
# Revision: 0
# Processed by: cddbd v1.5.2PL0 Copyright (c) Steve Scherf et al.
# Submitted via: ExactAudioCopy v0.99pb4
#
DISCID=970d410c
DTITLE=Various Artist - Detroit After Hours
DYEAR=1995
DGENRE=Blues
TTITLE0=Blues For My Baby
TTITLE1=Step Down On It
TTITLE2=The Train Is Comin'
TTITLE3=I Surrender Dear- St. Louis Boogie
TTITLE4=Sweet Petunia
TTITLE5=Tin Pan Alley
TTITLE6=Gonna Play the Blues
TTITLE7=Barne's Blues
TTITLE8=Dancin'
TTITLE9=After Hours
TTITLE10=Blue Grumble-Piquette Bounce
TTITLE11=That's Alright
EXTD=
EXTT0=
EXTT1=
EXTT2=
EXTT3=
EXTT4=
EXTT5=
EXTT6=
EXTT7=
EXTT8=
EXTT9=
EXTT10=
EXTT11=
PLAYORDER=
